PathFileType	4	(X/Y/Z)	C:/Users/beibeiliu/ov580/test_trc\sequence.14_training_dense_right.trc
DataRate	CameraRate	NumFrames	NumMarkers	Units	OrigDataRate	OrigDataStartFrame	OrigNumFrames
120	120	9	19	mm	120	336	383
Frame#	Time	ThumbCMC			ThumbMCP			ThumbIP			ThumbTip			IndexMCP			IndexPIP			IndexTip			MiddleMCP			MiddlePIP			MiddleTip			RingMCP			RingPIP			RingTip			PinkyMCP			PinkyPIP			PinkyTip			BackHand1			BackHand2			BackHand3	
		X0	Y0	Z0	X1	Y1	Z1	X2	Y2	Z2	X3	Y3	Z3	X4	Y4	Z4	X5	Y5	Z5	X6	Y6	Z6	X7	Y7	Z7	X8	Y8	Z8	X9	Y9	Z9	X10	Y10	Z10	X11	Y11	Z11	X12	Y12	Z12	X13	Y13	Z13	X14	Y14	Z14	X15	Y15	Z15	X16	Y16	Z16	X17	Y17	Z17	X18	Y18	Z18	
335	2.79167	199.393	-31.3101	-28.9867	166.893	-28.6753	-22.0828	142.152	-33.3684	-21.6559	127.124	-46.0242	-15.2228	153.062	-48.8471	-62.4808	134.393	-42.4482	-46.0745	143.234	-25.9838	-20.4423	149.384	-69.4887	-51.092	125.397	-55.5423	-39.0963	117.448	-40.3923	-13.1525	148.473	-74.4508	-37.6344	134.556	-58.3956	-20.4274	145.535	-44.1721	2.15493	155.813	-88.3733	-25.1998	141.254	-71.8551	-12.0375	145.96	-51.6878	-1.72552	201.204	-86.1093	-33.5949	223.429	-81.5643	-19.6384	215.647	-60.4798	-40.6122	
336	2.8	200.289	-42.5306	-26.5266	169.157	-26.5918	-24.2928	144.915	-37.6934	-25.3508	126.778	-47.5434	-20.2491	155.905	-54.2978	-60.2121	135.645	-36.2224	-48.8332	140.094	-26.2913	-19.5725	146.678	-67.1753	-51.9815	124.794	-51.7737	-42.9733	117.205	-33.4359	-13.8145	143.575	-73.7156	-35.9373	131.092	-57.6958	-19.2966	143.63	-42.5671	-0.945776	146.461	-85.6508	-22.5673	137.02	-65.5286	-10.8419	149.302	-49.3755	-2.89004	190.061	-93.1214	-30.4151	211.757	-91.1359	-16.4181	211.307	-71.942	-37.0416	
337	2.80833	202.573	-44.2693	-24.9124	168.602	-30.9995	-29.5206	145.865	-36.9401	-30.4121	123.621	-47.8528	-26.1704	152.046	-50.34	-61.8897	133.851	-36.0171	-46.7274	139.727	-22.372	-24.7001	138.822	-66.8559	-50.1067	122.812	-46.4249	-44.0961	118.209	-30.6962	-19.9359	137.382	-76.1584	-31.6695	127.512	-54.8642	-18.4428	144.094	-37.9684	-0.943095	140.14	-85.0532	-19.9186	134.334	-60.2368	-10.8211	151.104	-45.6504	-0.0585275	184.011	-99.2244	-23.6501	205.816	-93.931	-10.4303	203.742	-77.5314	-33.7868	
338	2.81667	201.592	-52.8391	-19.6853	170.994	-33.8231	-32.8485	145.403	-38.1577	-34.5473	125.509	-46.8372	-31.7081	151.8	-56.5299	-58.1433	136.543	-30.6508	-48.8083	142.912	-22.2446	-21.9725	134.494	-64.8287	-49.4312	118.87	-41.8002	-40.768	123.487	-21.8869	-21.1483	130.173	-73.2318	-31.1508	125.852	-48.0402	-20.3275	142.03	-35.9348	-2.97665	131.688	-79.9039	-16.1105	130.396	-56.384	-7.2474	151.299	-44.8918	-2.77052	176.518	-99.2947	-21.3218	195.601	-99.0967	-7.29984	199.636	-85.013	-29.8632	
339	2.825	197.608	-57.1251	-22.2757	176.886	-37.6685	-30.9458	149.866	-41.526	-37.6808	124.475	-45.937	-35.7659	147.334	-53.8733	-59.0842	138.398	-31.6136	-53.4804	148.134	-18.9116	-26.4856	131.158	-63.2647	-50.4617	118.917	-41.0324	-44.5312	128.562	-16.323	-20.2603	124.858	-69.5583	-31.5991	121.442	-44.6624	-22.1328	146.03	-32.483	-7.48165	125.997	-76.5665	-14.0369	124.323	-52.5866	-9.63108	147.589	-44.1908	-3.20528	164.704	-100.867	-17.0542	188.934	-102.923	-0.0906623	193.61	-89.47	-27.0418	
340	2.83333	193.301	-62.4451	-18.1639	174.818	-38.4584	-36.1289	150.848	-36.2294	-43.0099	126.476	-41.7348	-37.5827	149.11	-55.5964	-60.8787	135.087	-28.9604	-50.3245	147.144	-19.1806	-28.494	126.891	-59.8384	-51.135	119.044	-32.8927	-46.5351	128.441	-15.3906	-23.2882	120.355	-66.5485	-32.9133	119.96	-38.6122	-25.0175	140.813	-31.4327	-11.9087	119.252	-70.477	-15.3284	120.785	-47.094	-10.6326	147.734	-42.7881	-3.25338	155.585	-98.4558	-15.3009	171.252	-104.026	1.10835	182.06	-93.2391	-25.9497	
341	2.84167	192.883	-62.593	-19.0665	173.553	-43.8113	-35.5515	151.278	-37.3383	-44.3571	124.712	-41.6132	-39.5701	144.866	-52.3373	-61.7943	136.967	-25.287	-52.9846	147.298	-16.4649	-30.1347	129.41	-56.4977	-54.8352	120.61	-30.2305	-51.1811	131.153	-14.3838	-22.8894	117.699	-62.4892	-34.0176	119.052	-35.1899	-26.6998	139.564	-30.9991	-10.6531	111.305	-63.0785	-16.806	118.543	-42.6044	-14.014	143.661	-42.775	-7.99716	150.449	-97.8075	-14.4814	168.674	-104.359	1.58045	174.826	-92.7253	-21.3908	
342	2.85	189.158	-62.4106	-19.1772	173.135	-42.7676	-34.6595	149.333	-38.7796	-43.264	124.868	-38.1824	-42.8436	145.269	-54.173	-60.7867	136.4	-27.0475	-58.5991	146.818	-13.6042	-32.3664	127.175	-53.7954	-58.1956	119.196	-28.9917	-53.3075	131.68	-11.1145	-30.0947	114.945	-54.7148	-39.3933	118.155	-31.8407	-30.4838	142.449	-32.4481	-12.842	107.133	-60.9596	-20.427	119.318	-37.7474	-18.0912	140.929	-42.167	-5.01016	140.234	-95.7824	-17.0187	159.367	-101.09	4.84677	170.875	-93.9983	-17.9044	
343	2.85833	184.396	-62.3722	-14.3161	171.568	-41.2825	-34.5509	150.656	-33.9143	-45.608	126.501	-31.0449	-47.9288	144.444	-50.961	-65.9338	138.386	-24.3145	-63.1325	146.759	-10.9311	-35.5113	124.368	-51.5508	-59.2273	119.66	-22.7453	-52.3765	135.304	-9.13761	-29.0389	115.235	-52.6643	-40.8948	118.545	-28.6805	-34.0936	143.435	-33.0075	-14.4827	106.975	-56.3353	-24.2024	114.903	-33.3569	-19.0214	139.63	-40.9071	-5.45299	135.935	-91.6441	-12.6045	152.706	-98.1462	8.61539	168.916	-89.6947	-16.8658	
